<svg aria-hidden="true" style="position:absolute;width:0;height:0;overflow:hidden" xmlns="http://www.w3.org/2000/svg">
  <defs>
    <symbol id="empty-star-icon" viewBox="0 0 32 32">
      <path stroke-linejoin="round" stroke-width="3.2" d="M30 13H19.25L16 3l-3.25 10H2l8.75 6-3.375 10L16 22.75 24.625 29 21.25 19 30 13z"/>
    </symbol>
    <symbol id="full-star-icon" viewBox="0 0 32 32">
      <path d="M24.629 30.001a.999.999 0 0 1-.587-.188l-8.038-5.828-8.038 5.828a1.004 1.004 0 0 1-1.18-.004 1.003 1.003 0 0 1-.354-1.126l3.135-9.286-8.125-5.572A.999.999 0 0 1 2.005 12h10.024l3.025-9.309A.996.996 0 0 1 16.005 2a1.002 1.002 0 0 1 .951.691l3.025 9.313h10.024a1 1 0 0 1 .566 1.825l-8.128 5.569 3.133 9.283a1.001 1.001 0 0 1-.945 1.32z"/>
    </symbol>
    <symbol id="half-star-icon" viewBox="0 0 32 32">
      <path stroke-linejoin="round" stroke-width="3.2" d="M30 13H19.25L16 3l-3.25 10H2l8.75 6-3.375 10L16 22.75 24.625 29 21.25 19 30 13z"/>
      <path d="M16 3v19.75L7.375 29l3.375-10L2 13h10.75L16 3z"/>
    </symbol>
  </defs>
</svg>
