<svg aria-hidden="true" style="width:0;height:0;position:absolute;overflow:hidden" xmlns="http://www.w3.org/2000/svg"><defs><symbol id="big-moon-icon" viewBox="0 0 32 32"><path fill="none" stroke="#fff" style="stroke:var(--color1,#fff)" stroke-linejoin="round" stroke-linecap="round" stroke-width="2.133" d="M2.189 16.585c.515 7.14 6.772 12.948 14.261 13.267 5.283.222 10.008-2.163 12.843-5.92 1.174-1.539.544-2.565-1.417-2.218-.959.166-1.947.236-2.978.194-7.002-.277-12.729-5.947-12.757-12.643a11.998 11.998 0 0 1 1.074-5.06c.773-1.719-.157-2.537-1.947-1.802-5.67 2.315-9.55 7.847-9.078 14.182z"/></symbol><symbol id="big-switch-handle" viewBox="0 0 32 32"><path fill="#fff" style="fill:var(--color1,#fff)" d="M4.708 4.708c6.26-6.26 16.391-6.28 22.627-.043s6.217 16.367-.043 22.627c-6.26 6.26-16.391 6.28-22.627.043s-6.217-16.367.043-22.627z"/><path fill="none" stroke="#000" style="stroke:var(--color2,var(--accent-color))" stroke-linecap="round" stroke-width="2.133" d="M25.203 6.354c5.118 5.47 5.099 14.358-.043 19.853"/></symbol><symbol id="small-moon-icon" viewBox="0 0 32 32"><path fill="none" stroke="#fff" style="stroke:var(--color1,#fff)" stroke-linejoin="round" stroke-linecap="round" stroke-width="2.909" d="M2.766 16.962c.515 7.302 6.772 13.242 14.261 13.569 5.283.227 10.008-2.212 12.843-6.054 1.174-1.574.544-2.623-1.418-2.268-.959.17-1.947.241-2.978.198-7.001-.284-12.729-6.082-12.757-12.931a12.506 12.506 0 0 1 1.074-5.175c.773-1.758-.158-2.595-1.947-1.843-5.67 2.368-9.55 8.025-9.078 14.504z"/></symbol><symbol id="small-switch-handle" viewBox="0 0 32 32"><path fill="#fff" style="fill:var(--color1,#fff)" d="M5.814 5.111c5.903-6.037 15.454-6.055 21.334-.042s5.862 15.783-.041 21.819c-5.903 6.037-15.454 6.055-21.334.042s-5.862-15.783.041-21.819z"/><path fill="none" stroke="#000" style="stroke:var(--color2,var(--accent-color))" stroke-linecap="round" stroke-width="2.743" d="M25.139 6.699c4.826 5.274 4.808 13.846-.04 19.144"/></symbol></defs></svg>