<svg width="11" height="3" fill="none" xmlns="http://www.w3.org/2000/svg"><path d="M.916 1.18c0-.256.087-.47.26-.643.173-.178.408-.266.704-.266.3 0 .535.088.704.266.173.173.26.387.26.643 0 .255-.087.47-.26.642-.169.173-.403.26-.704.26-.296 0-.531-.087-.704-.26a.873.873 0 0 1-.26-.642Zm3.897 0c0-.256.086-.47.26-.643.172-.178.407-.266.703-.266.301 0 .536.088.704.266.174.173.26.387.26.643 0 .255-.086.47-.26.642-.168.173-.403.26-.704.26-.296 0-.53-.087-.704-.26a.873.873 0 0 1-.26-.642Zm3.896 0c0-.256.087-.47.26-.643.173-.178.408-.266.704-.266.3 0 .535.088.704.266.173.173.26.387.26.643 0 .255-.087.47-.26.642-.169.173-.403.26-.704.26-.296 0-.531-.087-.704-.26a.873.873 0 0 1-.26-.642Z" fill="#B7B7B7"/></svg>