<svg aria-hidden="true" style="width:0;height:0;position:absolute;overflow:hidden" xmlns="http://www.w3.org/2000/svg"><defs><symbol id="big-sun-icon" viewBox="0 0 32 32"><path fill="none" stroke="#fff" style="stroke:var(--color1,#fff)" stroke-linejoin="round" stroke-linecap="round" stroke-width="2" d="M16 26c5.523 0 10-4.477 10-10S21.523 6 16 6 6 10.477 6 16s4.477 10 10 10z"/><path fill="none" stroke="#fff" style="stroke:var(--color1,#fff)" stroke-linejoin="round" stroke-linecap="round" stroke-width="3" d="m25.814 6.186.182-.182M6.004 25.996l.182-.182M16 2.112V2m0 28v-.112M2.112 16H2m28 0h-.112M6.186 6.186l-.182-.182m19.992 19.992-.182-.182"/></symbol><symbol id="big-switch-handle" viewBox="0 0 32 32"><path fill="#fff" style="fill:var(--color1,#fff)" d="M27.292 4.708c-6.26-6.26-16.391-6.28-22.627-.043s-6.217 16.367.043 22.627c6.26 6.26 16.391 6.28 22.627.043s6.217-16.367-.043-22.627z"/><path fill="none" stroke="#000" style="stroke:var(--color2,var(--accent-color))" stroke-linecap="round" stroke-width="2.133" d="M6.797 6.354c-5.118 5.47-5.099 14.358.043 19.853"/></symbol><symbol id="small-sun-icon" viewBox="0 0 32 32"><path fill="none" stroke="#fff" style="stroke:var(--color1,#fff)" stroke-linejoin="round" stroke-linecap="round" stroke-width="2.327" d="M16.688 22.873c4.735 0 8.574-3.73 8.574-8.331s-3.839-8.331-8.574-8.331c-4.735 0-8.574 3.73-8.574 8.331s3.839 8.331 8.574 8.331z"/><path fill="none" stroke="#fff" style="stroke:var(--color1,#fff)" stroke-linejoin="round" stroke-linecap="round" stroke-width="2.909" d="m26.135 5.372.175-.17M7.069 23.896l.175-.17M16.69 1.563v-.105m0 26.182v-.105M3.324 14.549h-.108m26.947 0h-.108M7.245 5.372l-.175-.17m19.24 18.694-.175-.17"/></symbol><symbol id="small-switch-handle" viewBox="0 0 34 32"><path fill="#fff" style="fill:var(--color1,#fff)" d="M16.603 31.593C7.833 31.504.724 24.524.724 16.003S7.833.647 16.603.736c8.77.089 15.879 7.069 15.879 15.59s-7.109 15.356-15.879 15.267z"/><path fill="none" stroke="#000" style="stroke:var(--color2,#000)" stroke-linecap="round" stroke-width="1.371" d="M7.332 24.04c-4.797-4.588-4.793-12.029.008-16.62"/></symbol></defs></svg>