<svg aria-hidden="true" style="width:0;height:0;position:absolute;overflow:hidden" xmlns="http://www.w3.org/2000/svg"><defs><symbol id="empty-star-icon" viewBox="0 0 32 32"><path stroke-linejoin="round" stroke-width="2.286" d="M30 13H19.25L16 3l-3.25 10H2l8.75 6-3.375 10L16 22.75 24.625 29 21.25 19 30 13z"/></symbol><symbol id="full-star-icon" viewBox="0 0 32 32"><path d="M24.627 30a1.005 1.005 0 0 1-.587-.187l-8.038-5.827-8.038 5.827a.997.997 0 0 1-1.18-.005 1.003 1.003 0 0 1-.354-1.126l3.135-9.286-8.125-5.572a.999.999 0 0 1 .563-1.825h10.024l3.025-9.309a.996.996 0 0 1 .951-.691 1.002 1.002 0 0 1 .951.691l3.025 9.313h10.024a1 1 0 0 1 .566 1.825l-8.128 5.569 3.133 9.283a1.001 1.001 0 0 1-.945 1.32z"/></symbol><symbol id="half-star-icon" viewBox="0 0 32 32"><path stroke-linejoin="round" stroke-width="2.286" d="M30 13H19.25L16 3l-3.25 10H2l8.75 6-3.375 10L16 22.75 24.625 29 21.25 19 30 13z"/><path d="M16 3v19.75L7.375 29l3.375-10L2 13h10.75L16 3z"/></symbol></defs></svg>