<svg xmlns="http://www.w3.org/2000/svg" width="1024" height="1024"><path d="M788.056 959.993a31.968 31.968 0 0 1-18.776-5.998L512.059 767.517l-257.22 186.478a31.963 31.963 0 0 1-18.904 6.093 31.95 31.95 0 0 1-18.86-6.232 31.993 31.993 0 0 1-11.337-36.023l100.321-297.138-260-178.3a32 32 0 0 1 18-58.4h320.76l96.799-297.9a31.995 31.995 0 0 1 30.44-22.13 31.997 31.997 0 0 1 30.44 22.13l96.799 298h320.76c6.839-.004 13.495 2.182 18.995 6.235s9.56 9.762 11.586 16.291 1.902 13.534-.344 19.988-6.495 12.022-12.134 15.884l-260.103 178.2L818.32 917.751a32.046 32.046 0 0 1 1.331 14.958c-.753 5.025-2.684 9.794-5.639 13.919s-6.853 7.49-11.366 9.816a31.947 31.947 0 0 1-14.592 3.547z"/></svg>