<svg xmlns="http://www.w3.org/2000/svg" width="18" height="16" fill="none"><path fill="url('#a')" d="M13.852 15.875a.563.563 0 0 1-.33-.106L9 12.491 4.48 15.77a.562.562 0 0 1-.863-.636L5.379 9.91.81 6.776a.562.562 0 0 1 .316-1.026h5.639l1.7-5.237a.563.563 0 0 1 1.07 0l1.702 5.238h5.638a.563.563 0 0 1 .319 1.027L12.622 9.91l1.762 5.222a.564.564 0 0 1-.532.743Z"/><defs><linearGradient id="a" x1="2.625" x2="13.876" y1="1.25" y2="16.25" gradientUnits="userSpaceOnUse"><stop stop-color="#F84119"/><stop offset="1" stop-color="#F89F19" stop-opacity=".68"/></linearGradient></defs></svg>