<svg aria-hidden="true" style="position:absolute;width:0;height:0;overflow:hidden" xmlns="http://www.w3.org/2000/svg">
  <defs>
    <symbol id="empty-star-icon" viewBox="0 0 32 32">
      <path stroke-linejoin="round" stroke-width="1.454" d="M31.273 12.727H19.546L16.001 1.818l-3.545 10.909H.729l9.545 6.545-3.682 10.909 9.409-6.818 9.409 6.818-3.682-10.909 9.545-6.545z"/>
    </symbol>
    <symbol id="full-star-icon" viewBox="0 0 35 32">
      <path d="M26.864 31.273a1.093 1.093 0 0 1-.64-.204l-8.769-6.357-8.769 6.357a1.088 1.088 0 0 1-1.287-.004 1.095 1.095 0 0 1-.387-1.228l3.42-10.13-8.864-6.078a1.095 1.095 0 0 1-.426-1.222 1.089 1.089 0 0 1 1.039-.77h10.935l3.3-10.156a1.096 1.096 0 0 1 1.037-.755 1.087 1.087 0 0 1 1.037.755l3.3 10.159h10.935a1.089 1.089 0 0 1 1.031 1.449c-.077.22-.222.41-.414.541l-8.867 6.075 3.418 10.127a1.09 1.09 0 0 1-1.031 1.44z"/>
    </symbol>
    <symbol id="half-star-icon" viewBox="0 0 32 32">
      <path stroke-linejoin="round" stroke-width="1.333" d="M30 13H19.25L16 3l-3.25 10H2l8.75 6-3.375 10L16 22.75 24.625 29 21.25 19 30 13z"/>
      <path d="M16 3v19.75L7.375 29l3.375-10L2 13h10.75L16 3z"/>
    </symbol>
  </defs>
</svg>
