<svg aria-hidden="true" style="position:absolute;width:0;height:0;overflow:hidden" xmlns="http://www.w3.org/2000/svg">
  <defs>
    <symbol id="empty-star-icon" viewBox="0 0 37 32">
      <path stroke-linejoin="round" stroke-width="2.286" d="M34.286 12.571H22L18.286 1.142l-3.714 11.429H2.286l10 6.857-3.857 11.429 9.857-7.143 9.857 7.143-3.857-11.429 10-6.857z"/>
    </symbol>
    <symbol id="full-star-icon" viewBox="0 0 34 32">
      <path d="M26.268 29.867a1.065 1.065 0 0 1-.626-.2l-8.574-6.216-8.574 6.216a1.064 1.064 0 0 1-1.259-.005 1.068 1.068 0 0 1-.378-1.201l3.344-9.905-8.667-5.943a1.067 1.067 0 0 1 .601-1.946h10.692l3.227-9.93a1.063 1.063 0 0 1 1.641-.534c.182.133.318.319.387.534l3.227 9.933h10.692a1.067 1.067 0 0 1 .603 1.946l-8.67 5.94 3.342 9.902a1.068 1.068 0 0 1-1.009 1.408z"/>
    </symbol>
    <symbol id="half-star-icon" viewBox="0 0 32 32">
      <path stroke-linejoin="round" stroke-width="2" d="M30 13H19.25L16 3l-3.25 10H2l8.75 6-3.375 10L16 22.75 24.625 29 21.25 19 30 13z"/>
      <path d="M16 3v19.75L7.375 29l3.375-10L2 13h10.75L16 3z"/>
    </symbol>
  </defs>
</svg>
