<svg aria-hidden="true" style="position:absolute;width:0;height:0;overflow:hidden" xmlns="http://www.w3.org/2000/svg">
  <defs>
    <symbol id="empty-star-icon" viewBox="0 0 36 32">
      <path stroke-linejoin="round" stroke-width="1.778" d="M33.333 12.667H21.388L17.777 1.556l-3.611 11.111H2.222l9.722 6.667-3.75 11.111 9.583-6.944 9.583 6.944-3.75-11.111 9.722-6.667z"/>
    </symbol>
    <symbol id="full-star-icon" viewBox="0 0 36 32">
      <path d="M27.362 31.556a1.112 1.112 0 0 1-.652-.208l-8.931-6.475-8.931 6.475a1.107 1.107 0 0 1-1.311-.005 1.111 1.111 0 0 1-.394-1.251l3.483-10.317-9.028-6.191a1.108 1.108 0 0 1-.434-1.244 1.108 1.108 0 0 1 1.059-.784H13.36l3.361-10.344a1.11 1.11 0 0 1 2.114 0l3.361 10.347h11.137c.237 0 .468.076.66.216s.332.339.402.566a1.113 1.113 0 0 1-.434 1.246l-9.031 6.188 3.481 10.315a1.115 1.115 0 0 1-.545 1.343c-.157.081-.33.123-.507.123z"/>
    </symbol>
    <symbol id="half-star-icon" viewBox="0 0 32 32">
      <path stroke-linejoin="round" stroke-width="1.6" d="M30 13H19.25L16 3l-3.25 10H2l8.75 6-3.375 10L16 22.75 24.625 29 21.25 19 30 13z"/>
      <path d="M16 3v19.75L7.375 29l3.375-10L2 13h10.75L16 3z"/>
    </symbol>
  </defs>
</svg>
