<?xml version="1.0" encoding="UTF-8"?>
<svg xmlns="http://www.w3.org/2000/svg" xmlns:xlink="http://www.w3.org/1999/xlink" width="0" height="0">
  <symbol id="star-empty" width="16" height="14" fill="none">
    <path stroke="url(#a)" stroke-linejoin="round" d="M15 5.5H9.625L8 .5l-1.625 5H1l4.375 3-1.688 5L8 10.375l4.313 3.125-1.688-5L15 5.5Z"/>
      <defs>
        <linearGradient x1="2.71" x2="11.98" y1="1.429" y2="13.855" gradientUnits="userSpaceOnUse">
          <stop stop-color="#F84119"/>
          <stop offset="1" stop-color="#F89F19" stop-opacity=".68"/>
        </linearGradient>
      </defs>
  </symbol>
  <symbol id="star-full" width="18" height="16" fill="none">
    <path fill="url(#a)" d="M13.852 15.875a.563.563 0 0 1-.33-.106L9 12.491 4.48 15.77a.562.562 0 0 1-.863-.636L5.379 9.91.81 6.776a.562.562 0 0 1 .316-1.026h5.639L8.465.513a.563.563 0 0 1 1.07 0l1.702 5.238h5.638a.563.563 0 0 1 .319 1.027L12.622 9.91l1.762 5.222a.564.564 0 0 1-.532.743Z"/>
      <defs>
        <linearGradient x1="2.625" x2="13.876" y1="1.25" y2="16.25" gradientUnits="userSpaceOnUse">
          <stop stop-color="#F84119"/>
          <stop offset="1" stop-color="#F89F19" stop-opacity=".68"/>
        </linearGradient>
      </defs>
  </symbol>
  <symbol id="star-half" width="16" height="16" fill="none">
    <path stroke="url(#a)" stroke-linejoin="round" d="M15 6.5H9.625L8 1.5l-1.625 5H1l4.375 3-1.688 5L8 11.375l4.313 3.125-1.688-5L15 6.5Z"/>
    <path fill="url(#b)" d="M8 1.5v9.875L3.687 14.5l1.688-5L1 6.5h5.375L8 1.5Z"/>
      <defs>
        <linearGradient x1="2.71" x2="11.98" y1="2.429" y2="14.855" gradientUnits="userSpaceOnUse">
          <stop stop-color="#F84119"/>
          <stop offset="1" stop-color="#F89F19" stop-opacity=".68"/>
        </linearGradient>
        <linearGradient id="b" x1="1.855" x2="10.8" y1="2.429" y2="8.424" gradientUnits="userSpaceOnUse">
          <stop stop-color="#F84119"/>
          <stop offset="1" stop-color="#F89F19" stop-opacity=".68"/>
        </linearGradient>
      </defs>
  </symbol>
</svg>