<svg width="11" height="3" viewBox="0 0 11 3" fill="none" xmlns="http://www.w3.org/2000/svg">
<path d="M0.916016 1.17969C0.916016 0.924479 1.0026 0.710286 1.17578 0.537109C1.34896 0.359375 1.58366 0.270508 1.87988 0.270508C2.18066 0.270508 2.41536 0.359375 2.58398 0.537109C2.75716 0.710286 2.84375 0.924479 2.84375 1.17969C2.84375 1.4349 2.75716 1.64909 2.58398 1.82227C2.41536 1.99544 2.18066 2.08203 1.87988 2.08203C1.58366 2.08203 1.34896 1.99544 1.17578 1.82227C1.0026 1.64909 0.916016 1.4349 0.916016 1.17969ZM4.8125 1.17969C4.8125 0.924479 4.89909 0.710286 5.07227 0.537109C5.24544 0.359375 5.48014 0.270508 5.77637 0.270508C6.07715 0.270508 6.31185 0.359375 6.48047 0.537109C6.65365 0.710286 6.74023 0.924479 6.74023 1.17969C6.74023 1.4349 6.65365 1.64909 6.48047 1.82227C6.31185 1.99544 6.07715 2.08203 5.77637 2.08203C5.48014 2.08203 5.24544 1.99544 5.07227 1.82227C4.89909 1.64909 4.8125 1.4349 4.8125 1.17969ZM8.70898 1.17969C8.70898 0.924479 8.79557 0.710286 8.96875 0.537109C9.14193 0.359375 9.37663 0.270508 9.67285 0.270508C9.97363 0.270508 10.2083 0.359375 10.377 0.537109C10.5501 0.710286 10.6367 0.924479 10.6367 1.17969C10.6367 1.4349 10.5501 1.64909 10.377 1.82227C10.2083 1.99544 9.97363 2.08203 9.67285 2.08203C9.37663 2.08203 9.14193 1.99544 8.96875 1.82227C8.79557 1.64909 8.70898 1.4349 8.70898 1.17969Z" fill="#B7B7B7"/>
</svg>
